<svg xmlns="http://www.w3.org/2000/svg" xmlns:xlink="http://www.w3.org/1999/xlink" width="169" height="169" viewBox="0 0 169 169">
  <defs>
    <clipPath id="clip-path">
      <rect id="Rectangle_3" data-name="Rectangle 3" width="169" height="169" transform="translate(1012 689)" fill="#fff"/>
    </clipPath>
  </defs>
  <g id="Mask_Group_3" data-name="Mask Group 3" transform="translate(-1012 -689)" clip-path="url(#clip-path)">
    <g id="shopping-cart" transform="translate(1017 694)">
      <path id="XMLID_952_" d="M7,40.345A16.345,16.345,0,1,0,23.345,24,16.365,16.365,0,0,0,7,40.345Zm21.793,0A5.448,5.448,0,1,1,23.345,34.9,5.457,5.457,0,0,1,28.793,40.345Z" transform="translate(26.689 102.31)" fill="#8c8c8c"/>
      <path id="XMLID_955_" d="M51.689,40.345A16.345,16.345,0,1,0,35.345,56.689,16.365,16.365,0,0,0,51.689,40.345Zm-21.793,0a5.448,5.448,0,1,1,5.448,5.448A5.457,5.457,0,0,1,29.9,40.345Z" transform="translate(80.068 102.31)" fill="#8c8c8c"/>
      <path id="XMLID_958_" d="M17.89,11.9c.676,6.434,8.194,77.85,9.355,88.883A16.312,16.312,0,0,0,43.5,115.413h84.9a16.44,16.44,0,0,0,15.985-12.923l13.087-61.069a10.9,10.9,0,0,0-10.662-13.179H30.568L28.214,5.882A5.45,5.45,0,0,0,22.793,1H6.448a5.448,5.448,0,0,0,0,10.9ZM146.811,39.138,133.73,100.207a5.488,5.488,0,0,1-5.334,4.31H43.5a5.438,5.438,0,0,1-5.421-4.876l-6.369-60.5Z" transform="translate(0 0)" fill="#8c8c8c"/>
    </g>
  </g>
</svg>
