<svg version="1.1" xmlns="http://www.w3.org/2000/svg" xmlns:xlink="http://www.w3.org/1999/xlink" width="2000.000000pt" height="2000.000000pt" viewBox="0,0,256,256"><g fill="#979797" fill-rule="nonzero" stroke="none" stroke-width="1" stroke-linecap="butt" stroke-linejoin="miter" stroke-miterlimit="10" stroke-dasharray="" stroke-dashoffset="0" font-family="none" font-weight="none" font-size="none" text-anchor="none" style="mix-blend-mode: normal"><g transform="translate(0,0.01146) scale(0.128,0.128)"><g transform="translate(0,2000) scale(0.1,-0.1)"><path d="M810,19990c-394,-49 -702,-328 -786,-711c-25,-115 -21,-292 9,-410c25,-96 74,-206 130,-289c16,-25 1949,-1965 4296,-4312l4266,-4268l-4266,-4267c-2347,-2348 -4280,-4288 -4296,-4313c-168,-251 -203,-571 -94,-844c113,-282 354,-487 652,-552c115,-25 292,-21 410,9c96,25 206,74 289,130c25,16 1965,1949 4313,4296l4267,4266l4268,-4266c2347,-2347 4287,-4280 4312,-4296c251,-168 571,-203 844,-94c282,113 487,354 552,652c25,115 21,292 -9,410c-25,96 -74,206 -130,289c-16,25 -1949,1965 -4296,4313l-4266,4267l4266,4268c2347,2347 4280,4287 4296,4312c168,251 203,571 94,844c-113,282 -354,487 -652,552c-115,25 -292,21 -410,-9c-96,-25 -206,-74 -289,-130c-25,-16 -1965,-1949 -4312,-4296l-4268,-4266l-4268,4266c-2347,2347 -4287,4280 -4312,4296c-177,118 -412,177 -610,153z"></path></g></g></g></svg>