<svg xmlns="http://www.w3.org/2000/svg" xmlns:xlink="http://www.w3.org/1999/xlink" width="169" height="169" viewBox="0 0 169 169">
  <defs>
    <clipPath id="clip-path">
      <rect id="Rectangle_1" data-name="Rectangle 1" width="169" height="169" transform="translate(728 465)" fill="#fff"/>
    </clipPath>
  </defs>
  <g id="Mask_Group_1" data-name="Mask Group 1" transform="translate(-728 -465)" clip-path="url(#clip-path)">
    <g id="telephone_3_" data-name="telephone (3)" transform="translate(735.891 472.889)">
      <path id="Path_1" data-name="Path 1" d="M31.591,101.018a161.223,161.223,0,0,0,53.627,42.007c7.841,3.716,18.327,8.124,30.009,8.88.724.032,1.417.063,2.141.063a24.851,24.851,0,0,0,19.272-8.282.687.687,0,0,0,.126-.157,81.135,81.135,0,0,1,6.077-6.3c1.48-1.417,2.991-2.9,4.44-4.409,6.707-6.991,6.707-15.871-.063-22.641L128.295,91.256a15.318,15.318,0,0,0-11.084-5.1A15.834,15.834,0,0,0,106,91.225L94.727,102.5c-1.039-.6-2.11-1.134-3.117-1.637a38.939,38.939,0,0,1-3.464-1.889c-10.266-6.518-19.586-15.02-28.5-25.947a68.705,68.705,0,0,1-9.636-15.367c2.96-2.677,5.731-5.479,8.408-8.219.945-.976,1.921-1.952,2.9-2.929,3.4-3.4,5.227-7.337,5.227-11.336s-1.795-7.935-5.227-11.336l-9.384-9.384c-1.1-1.1-2.141-2.173-3.212-3.275-2.078-2.141-4.251-4.346-6.392-6.329A15.7,15.7,0,0,0,31.245,0a16.162,16.162,0,0,0-11.21,4.881L8.257,16.658A24.2,24.2,0,0,0,1.046,32.151c-.6,7.526.787,15.524,4.377,25.192C10.934,72.3,19.247,86.187,31.591,101.018ZM8.73,32.812a16.656,16.656,0,0,1,5.007-10.706L25.45,10.392a8.48,8.48,0,0,1,5.794-2.677,8.046,8.046,0,0,1,5.668,2.74c2.11,1.952,4.094,4,6.235,6.172,1.071,1.1,2.173,2.2,3.275,3.338l9.384,9.384c1.952,1.952,2.96,3.936,2.96,5.889s-1.008,3.936-2.96,5.889c-.976.976-1.952,1.984-2.929,2.96-2.929,2.96-5.668,5.763-8.691,8.439l-.157.157a6.157,6.157,0,0,0-1.574,6.991c.031.094.063.157.094.252A74.11,74.11,0,0,0,53.6,77.9C63.049,89.556,73,98.593,83.958,105.553a45.075,45.075,0,0,0,4.157,2.267,38.942,38.942,0,0,1,3.464,1.889c.126.063.22.126.346.189a6.582,6.582,0,0,0,3.054.787,6.679,6.679,0,0,0,4.692-2.141l11.777-11.777a8.333,8.333,0,0,1,5.763-2.8,7.908,7.908,0,0,1,5.574,2.8l18.988,18.957c3.779,3.779,3.747,7.872-.094,11.872-1.323,1.417-2.708,2.771-4.188,4.188a90.683,90.683,0,0,0-6.581,6.833,17.288,17.288,0,0,1-13.509,5.731c-.535,0-1.1-.032-1.637-.063-10.329-.661-19.933-4.692-27.144-8.124A153.16,153.16,0,0,1,37.574,96.169C25.828,82.03,17.925,68.867,12.7,54.76,9.454,46.1,8.226,39.141,8.73,32.812Z" transform="translate(0 0)" fill="#979797" stroke="#979797" stroke-width="3"/>
    </g>
  </g>
</svg>
