<svg xmlns="http://www.w3.org/2000/svg" xmlns:xlink="http://www.w3.org/1999/xlink" width="169" height="169" viewBox="0 0 169 169">
  <defs>
    <clipPath id="clip-path">
      <rect id="Rectangle_2" data-name="Rectangle 2" width="169" height="169" transform="translate(1012 465)" fill="#fff"/>
    </clipPath>
  </defs>
  <g id="Mask_Group_2" data-name="Mask Group 2" transform="translate(-1012 -465)" clip-path="url(#clip-path)">
    <g id="Group_9" data-name="Group 9" transform="translate(100.508 279.344)">
      <g id="Group_7" data-name="Group 7" transform="translate(956.145 190.656)">
        <path id="Path_3" data-name="Path 3" d="M44.566,86.131A39.566,39.566,0,1,1,84.131,46.566,39.621,39.621,0,0,1,44.566,86.131Zm0-63.305A23.739,23.739,0,1,0,68.305,46.566,23.768,23.768,0,0,0,44.566,22.826Z" transform="translate(-5 -7)" fill="#8c8c8c"/>
      </g>
      <g id="Group_8" data-name="Group 8" transform="translate(924.492 285.614)">
        <path id="Path_4" data-name="Path 4" d="M137.523,76.305a7.916,7.916,0,0,1-7.913-7.913V52.566a23.768,23.768,0,0,0-23.739-23.739H42.566A23.768,23.768,0,0,0,18.826,52.566V68.392A7.913,7.913,0,0,1,3,68.392V52.566A39.621,39.621,0,0,1,42.566,13h63.305a39.621,39.621,0,0,1,39.566,39.566V68.392A7.916,7.916,0,0,1,137.523,76.305Z" transform="translate(-3 -13)" fill="#8c8c8c"/>
      </g>
    </g>
  </g>
</svg>
